<svg id="Layer_1" data-name="Layer 1" xmlns="http://www.w3.org/2000/svg" viewBox="0 0 263.93 274.06"><defs><style>.cls-1,.cls-3{fill:#fff;}.cls-2{fill:#231f20;}.cls-3{stroke:#231f20;stroke-linejoin:round;}</style></defs><polygon class="cls-1" points="6.13 93.37 238.39 108.59 238.39 272.19 6.13 228.16 6.13 93.37"/><path class="cls-2" d="M28.44,99l57.82,3.38,29,1.73,29.08,1.81c19.4,1.2,38.8,2.38,58.23,3.71s38.83,2.68,58.21,4.06l.57,0v.56l-.22,40.9-.07,40.9.09,40.9.2,40.9v.73l-.72-.13-58.11-10.74-58.09-10.88-58.07-11c-19.35-3.69-38.71-7.33-58-11.12l-.75-.15v-.75L28,166.22Zm.13.15L29,166.69l.38,67.16-.74-.89c19.37,3.54,38.72,7.24,58.08,10.88l58.06,11,58,11.14,58,11.28-.72.59.2-40.9.09-40.9-.06-40.9-.22-40.9.56.6c-19.33-1.16-38.63-2.28-57.92-3.55s-38.58-2.56-57.9-3.89l-29-2-29.05-2.08Z" transform="translate(-22.38 -5.69)"/><polygon class="cls-1" points="262.9 96.43 238.39 108.55 238.39 272.19 262.9 237.11 262.9 96.43"/><path class="cls-2" d="M285.22,102.21,273,108.56c-4,2.12-8,4.17-12,6.2l.32-.52c.19,13.64.23,27.28.29,40.91s0,27.28-.21,40.91l-.25,20.46-.1,20.45.08,20.46.21,20.45-1.08-.34,12.08-17.66,12.15-17.61-.17.54c0-11.67-.14-23.29-.09-34.93l.18-34.94Zm.11-.17.79,70,.18,35.39c.05,11.81-.05,23.63-.08,35.42v.3l-.17.23-12.37,17.47-12.43,17.41-1.09,1.53v-1.87l.22-20.45.07-20.46-.09-20.45-.26-20.46q-.28-20.44-.21-40.91c.06-13.63.1-27.27.3-40.91v-.36l.31-.15c4.18-2,8.38-4,12.53-5.92Z" transform="translate(-22.38 -5.69)"/><polygon class="cls-1" points="263.58 96.09 55.69 84.66 5.88 93.37 238.28 108.6 263.58 96.09"/><path class="cls-2" d="M285.86,101.81,181.43,96.75l-25.81-1.39-25.78-1.57L104,92.17,78.06,90.66h.06L53.23,95.07,28.35,99.59l-.06-1.06L86.42,102c19.37,1.23,38.74,2.37,58.11,3.67s38.73,2.54,58.09,4l29,2.07,29,2.17-.24,0,12.6-6C277.29,105.93,281.58,103.89,285.86,101.81Zm.2,0c-4.16,2.08-8.3,4.22-12.49,6.4l-12.7,6.54a.48.48,0,0,1-.23.05h0l-29.07-1.64-29.06-1.73c-19.38-1.13-38.74-2.44-58.11-3.66s-38.73-2.64-58.09-4L28.22,99.6h0a.54.54,0,0,1-.05-1.07L53.1,94.35,78,90.06s0,0,.07,0l26,1.34,26.12,1.24,26.19,1.28,26.16,1.47Z" transform="translate(-22.38 -5.69)"/><polygon class="cls-1" points="231.51 42.4 6.14 92.57 0.53 56.11 223.54 0.58 231.51 42.4"/><path class="cls-2" d="M254,48.15,226.1,54.67l-28,6.46-28.15,6.41c-9.4,2.12-18.76,4.3-28.2,6.36-18.84,4.22-37.77,8.26-56.64,12.3l-14.15,3L56.8,92.33,42.68,95.42,28.59,98.6a.34.34,0,0,1-.4-.26v0L25.32,80.1,22.39,61.88a.51.51,0,0,1,.38-.59h0L78.45,47.05l55.71-14,55.78-13.79L245.78,5.71h0a.58.58,0,0,1,.7.43v0l3.77,21.09Zm-.16-.11L245.35,6.39l.72.45L190.4,21.09l-55.73,14L78.88,48.8,23,62.32l.4-.6L26.11,80l2.74,18.25-.4-.28,14.08-3.1,14.06-3.18,14-3.17,14-3.24c18.69-4.33,37.32-8.64,56.05-12.79,9.33-2.12,18.75-4.12,28.13-6.18L197,60.14l28.31-6.08Z" transform="translate(-22.38 -5.69)"/><polygon class="cls-1" points="223.54 0.58 231.51 42.4 255.07 40.6 248.08 3.3 223.54 0.58"/><path class="cls-2" d="M246,6.35c1.69,7.28,3.29,14.22,4.73,21.07.72,3.43,1.44,6.83,2,10.25s1.08,6.86,1.62,10.33l-.5-.38q5.89-.23,11.78-.74c3.93-.33,7.84-.77,11.76-1.19l-.55.72c-1.4-6.17-2.64-12.38-3.88-18.58q-.95-4.65-1.82-9.32c-.58-3.1-1.12-6.22-1.66-9.34l.86.79c-4-.51-7.89-1.06-11.93-1.7Zm-.15-.14L258,7c4.14.26,8.38.62,12.6,1a1,1,0,0,1,.85.76v0c.63,3.1,1.25,6.2,1.84,9.31s1.14,6.22,1.67,9.34c1.09,6.23,2.19,12.46,3.11,18.73v0a.59.59,0,0,1-.5.67h-.06c-3.93.18-7.87.34-11.8.61s-7.85.61-11.76,1.05a.46.46,0,0,1-.5-.34v0c-.8-3.49-1.61-7-2.37-10.57s-1.37-7.12-2-10.66C247.87,19.86,246.81,12.86,245.85,6.21Z" transform="translate(-22.38 -5.69)"/><polygon class="cls-1" points="6.14 92.57 55.69 84.66 255.07 40.6 231.51 42.4 6.14 92.57"/><path class="cls-2" d="M28.62,98.25q8-1.31,15.87-2.69l15.6-2.8,15.44-2.67c2.57-.36,5.16-1.06,7.74-1.63L91,86.71l31-7c10.34-2.34,20.71-4.54,31.06-6.81l31.09-6.6,15.56-3.28,15.53-3.37c20.72-4.47,41.39-9.18,62-13.92l.16,1.08L254,48.8h.1l-28,6.42-28,6.28c-18.61,4.2-37.29,8.21-56,12.25L85.6,85.82,57.17,92Zm-.2,0L56.21,92l27.91-6.39,56.24-13C159.21,68.29,178.09,64,197,59.78l28.36-6.26,28.34-6.12h0l.09,0,23.57-1.63h0a.56.56,0,0,1,.59.51.54.54,0,0,1-.44.57c-20.73,4.42-41.46,8.85-62.13,13.53l-15.52,3.49-15.49,3.58-31,7.12c-10.34,2.3-20.68,4.67-31,6.91L91.31,88.22l-7.77,1.67c-2.6.53-5.15,1.18-7.83,1.51l-16,2.35L43.94,96Q36.13,97.07,28.42,98.29Z" transform="translate(-22.38 -5.69)"/><polygon points="213.47 106.6 194.55 105.42 207.16 123.77 220.03 142.48 238.39 144.12 238.39 142.33 226.47 125.23 213.47 106.6"/><polygon points="238.39 115.48 238.39 108.16 232.97 107.82 238.39 115.48"/><polygon points="22.45 124.79 36.6 126.06 27.09 110.09 17.73 94.4 6.33 93.69 6.33 97.42 13.17 109.04 22.45 124.79"/><polygon points="158.3 103.16 170.21 120.96 182.35 139.1 200.91 140.77 188.42 122.34 176.16 104.28 158.3 103.16"/><polygon points="60.92 97.09 71.03 113.43 81.32 130.06 97.02 131.47 86.46 114.6 76.08 98.04 60.92 97.09"/><polygon points="124.05 101.03 135.31 118.31 146.78 135.92 164.31 137.49 152.52 119.62 140.94 102.08 124.05 101.03"/><polygon points="6.33 119.56 6.33 123.35 8.65 123.56 6.33 119.56"/><polygon points="31.76 95.27 41.36 111.18 51.12 127.36 66.02 128.69 56 112.29 46.15 96.17 31.76 95.27"/><polygon points="91.64 99.01 102.3 115.81 113.16 132.91 129.74 134.4 118.58 117.04 107.63 100 91.64 99.01"/><path class="cls-1" d="M371.06,194.72" transform="translate(-22.38 -5.69)"/><path d="M230.69,53.26l-17.79,4,8-23.28c3.23-9.34,4.85-14,8.1-23.46l16.88-4.2.4,2.07c-3,8.58-4.47,12.85-7.44,21.36Z" transform="translate(-22.38 -5.69)"/><path d="M252.26,39.53c.65,3.42,1,5.13,1.63,8.56l-5,1.12C250.22,45.35,250.9,43.41,252.26,39.53Z" transform="translate(-22.38 -5.69)"/><path d="M39.11,57.77l14.12-3.52c-2.64,8.35-4,12.51-6.59,20.8S42.71,87.46,40.1,95.69L28.52,98.27l-.71-4.61c1.92-6.11,2.89-9.17,4.82-15.31Z" transform="translate(-22.38 -5.69)"/><path d="M178.46,64.89c3.08-9.07,4.62-13.62,7.73-22.75s4.66-13.72,7.79-22.93l17.34-4.32-7.94,23.2-7.89,23Z" transform="translate(-22.38 -5.69)"/><path d="M83.44,86l6.9-21.3c2.77-8.55,4.16-12.84,7-21.46l15.28-3.8c-2.84,8.71-4.26,13-7.08,21.69l-7,21.52Z" transform="translate(-22.38 -5.69)"/><path d="M145.46,72.23c3-8.86,4.45-13.31,7.43-22.24s4.49-13.41,7.5-22.42L177,23.44l-7.65,22.67c-3,9-4.56,13.53-7.58,22.49Z" transform="translate(-22.38 -5.69)"/><path d="M23.62,66.44l-.71-4.64,2.35-.58C24.6,63.31,24.28,64.35,23.62,66.44Z" transform="translate(-22.38 -5.69)"/><path d="M54.26,92.54c2.66-8.32,4-12.49,6.66-20.86s4-12.58,6.71-21L82.31,47,75.49,68.24c-2.73,8.47-4.08,12.68-6.78,21.08Z" transform="translate(-22.38 -5.69)"/><path d="M113.81,79.28,121,57.52l7.22-21.93,15.93-4-7.35,22.16-7.3,22Z" transform="translate(-22.38 -5.69)"/><path class="cls-1" d="M27.53,85l.64,36.7a5.19,5.19,0,0,0,4.69,5.06l27.64,2.59a5.17,5.17,0,0,0,4.68-8.17L36.9,81.85A5.17,5.17,0,0,0,27.53,85Z" transform="translate(-22.38 -5.69)"/><path class="cls-2" d="M27.63,85c.07,6,.5,12.11.84,18.16S29,115.24,29,121.3a7.88,7.88,0,0,0,0,1,5.16,5.16,0,0,0,.23.94,4.67,4.67,0,0,0,1.05,1.62,4.53,4.53,0,0,0,1.67,1,4.38,4.38,0,0,0,1,.23l1.12.15c3,.38,6,.76,9,1.08s6,.59,9.05.83c1.51.12,3,.24,4.53.33l2.27.16c.74,0,1.55.13,2.2.1a4.66,4.66,0,0,0,1.91-.57,4.77,4.77,0,0,0,1.47-1.32,4.55,4.55,0,0,0,.7-3.7,4.63,4.63,0,0,0-.87-1.73L63,119.65,60.32,116c-3.6-4.88-7.21-9.75-10.72-14.68s-7-9.9-10.29-15l-2.5-3.81a6.8,6.8,0,0,0-1.38-1.62A4.92,4.92,0,0,0,33.51,80a5,5,0,0,0-4.1,1A4.94,4.94,0,0,0,27.63,85Zm-.2,0a5.23,5.23,0,0,1,1.79-4.12,5.64,5.64,0,0,1,4.38-1.36,5.5,5.5,0,0,1,2.26.81A7.37,7.37,0,0,1,37.56,82l2.82,3.57c3.78,4.74,7.37,9.62,10.95,14.51s7,9.87,10.51,14.83l2.61,3.72,1.29,1.87a6.37,6.37,0,0,1,1.06,2.35,5.87,5.87,0,0,1-1.17,4.89,6.07,6.07,0,0,1-2,1.58,5.63,5.63,0,0,1-2.44.57,23.08,23.08,0,0,1-2.33-.22l-2.26-.27c-1.5-.19-3-.36-4.51-.51-3-.33-6-.61-9-.87s-6-.44-9.07-.62l-1.14-.07a6.07,6.07,0,0,1-1.24-.21,5.76,5.76,0,0,1-2.24-1.21,6.27,6.27,0,0,1-1.53-2.07,6.41,6.41,0,0,1-.5-2.5c-.23-6.06-.29-12.12-.12-18.18S27.56,91,27.43,85Z" transform="translate(-22.38 -5.69)"/><path class="cls-1" d="M101.47,162.91c0-4.36,3.64-6.95,7-5l33,19.32,29.18,17.09c4.87,2.85,4.87,10.71,0,12.19l-29.18,8.89-33,10c-3.38,1-7-2.58-7-6.94V162.91Z" transform="translate(-22.38 -5.69)"/><path class="cls-2" d="M101.37,162.91a6.77,6.77,0,0,1,.92-3.48,4.71,4.71,0,0,1,2.86-2.17,4.65,4.65,0,0,1,3.56.59l3.13,1.75,12.58,6.94c8.4,4.59,16.68,9.39,24.88,14.33l12.25,7.49,6.12,3.75,3.07,1.86a7.85,7.85,0,0,1,2.64,2.61,8.08,8.08,0,0,1,.71,7.17,5.29,5.29,0,0,1-2.5,2.77c-.3.12-.6.26-.89.36l-.85.27-1.72.53c-4.57,1.4-9.11,2.92-13.67,4.37q-13.65,4.47-27.35,8.74l-13.7,4.28L110,226.14a16.71,16.71,0,0,1-1.87.51,5.17,5.17,0,0,1-2.22-.13,7.9,7.9,0,0,1-5.25-6,10.51,10.51,0,0,1-.23-2v-1.8l0-3.58.07-7.18c0-4.79.16-9.57.3-14.36C101.07,182.05,101.38,172.48,101.37,162.91Zm.2,0c0,9.57.3,19.14.56,28.71.13,4.79.26,9.57.3,14.36l.06,7.18,0,3.58v1.8a7.29,7.29,0,0,0,.19,1.54,7.13,7.13,0,0,0,1.34,2.75,4.84,4.84,0,0,0,2.39,1.63,3,3,0,0,0,1.32.09c.37-.06,1-.28,1.59-.44l3.44-1L126.56,219q13.75-4.11,27.58-8c4.59-1.34,9.21-2.61,13.79-4l1.72-.51.86-.26.78-.31a4.63,4.63,0,0,0,2.23-2.42,7.34,7.34,0,0,0-.69-6.59,7.13,7.13,0,0,0-2.46-2.33l-3.12-1.77-6.27-3.5-12.52-7c-8.32-4.73-16.56-9.6-24.68-14.68l-12.2-7.57-3.06-1.87a4.38,4.38,0,0,0-3.31-.66,4.44,4.44,0,0,0-2.73,2A6.57,6.57,0,0,0,101.57,162.91Z" transform="translate(-22.38 -5.69)"/><line class="cls-1" x1="21.37" y1="221.45" x2="220.51" y2="258.84"/><path class="cls-2" d="M43.75,227.1q25,4.17,49.86,9c8.28,1.62,16.55,3.34,24.85,4.91s16.6,3.09,24.91,4.57c16.62,3,33.24,5.94,49.83,9.11,8.3,1.54,16.58,3.19,24.87,4.82s16.57,3.26,24.83,5l0,.1c-8.32-1.39-16.64-2.88-24.95-4.37s-16.62-2.95-24.92-4.52c-16.6-3.06-33.17-6.31-49.74-9.58-8.28-1.64-16.57-3.27-24.88-4.77s-16.63-2.94-24.93-4.44q-24.92-4.56-49.72-9.7Z" transform="translate(-22.38 -5.69)"/><line class="cls-1" x1="21.58" y1="133.32" x2="219.73" y2="153.7"/><path class="cls-2" d="M44,139q24.82,2,49.58,4.73c8.25.92,16.49,1.93,24.74,2.79s16.52,1.68,24.78,2.45c16.53,1.55,33.05,3.11,49.56,4.85,8.26.84,16.51,1.78,24.75,2.71s16.5,1.84,24.74,2.85v.1c-8.27-.68-16.54-1.45-24.8-2.23s-16.53-1.54-24.78-2.4c-16.52-1.65-33-3.48-49.52-5.34-8.24-.93-16.49-1.85-24.75-2.64s-16.54-1.52-24.8-2.31q-24.78-2.45-49.5-5.46Z" transform="translate(-22.38 -5.69)"/><line class="cls-3" x1="238.39" y1="144.12" x2="262.39" y2="127.58"/></svg>