<svg id="Layer_1" data-name="Layer 1" xmlns="http://www.w3.org/2000/svg" viewBox="0 0 279.56 242.94"><defs><style>.cls-1{fill:#fff;}.cls-2{fill:#231f20;}</style></defs><path class="cls-1" d="M341.33,564.68l-22.59,40V471l16.77,8.69a14.18,14.18,0,0,1,7.65,12.58v65.42A14.17,14.17,0,0,1,341.33,564.68Z" transform="translate(-64.63 -427.84)"/><path class="cls-2" d="M341.41,564.73c-1.86,3.34-3.75,6.67-5.58,10s-3.66,6.72-5.48,10.09c-3.64,6.73-7.22,13.49-10.9,20.2a.8.8,0,0,1-1.1.32.78.78,0,0,1-.41-.69v0q-.12-8.35-.07-16.71c0-5.57,0-11.14.16-16.7l.26-16.71c.1-5.57.09-11.13.14-16.7l-.06-16.71-.22-16.7q-.27-16.71-.35-33.41a.94.94,0,0,1,.94-.94.91.91,0,0,1,.43.1h0l11.92,6.1,3,1.52c1,.52,2,1,3,1.61a15.09,15.09,0,0,1,5,5.11,15.31,15.31,0,0,1,2.09,6.8c.06,1.24,0,2.28,0,3.41v3.35c0,4.46,0,8.92-.07,13.38l-.19,13.39-.3,13.38-.26,13.39-.08,6.69A14.22,14.22,0,0,1,341.41,564.73Zm-.17-.1A13.94,13.94,0,0,0,343,558.3c0-2.22,0-4.46-.05-6.68l-.26-13.39-.3-13.38-.19-13.39c-.08-4.46,0-8.92-.07-13.38v-3.35c0-1.09,0-2.28,0-3.28A13.22,13.22,0,0,0,336,481.2c-.85-.53-1.88-1-2.86-1.56l-3-1.56-11.85-6.22,1.38-.84q-.09,16.71-.36,33.41l-.21,16.7-.06,16.71c.05,5.57,0,11.13.14,16.7l.26,16.71c.12,5.56.13,11.13.16,16.7s0,11.14-.07,16.71l-1.51-.4c3.85-6.62,7.8-13.18,11.68-19.77,1.95-3.29,3.91-6.58,5.82-9.9S339.34,568,341.24,564.63Z" transform="translate(-64.63 -427.84)"/><path class="cls-1" d="M297.64,665.28a4.53,4.53,0,0,1-5.57,4.61L71,628a7.13,7.13,0,0,1-5.57-6.72V434.85a5.62,5.62,0,0,1,5.67-5.62L292,430.9a5.75,5.75,0,0,1,5.67,5.71Z" transform="translate(-64.63 -427.84)"/><path class="cls-2" d="M297.74,665.28a5,5,0,0,1-1.18,3.29,4.54,4.54,0,0,1-3.15,1.52,6.56,6.56,0,0,1-1.77-.16l-1.72-.32-3.44-.65-13.77-2.57-27.55-5.13L190,651.19q-55.12-10.05-110.15-20.68L73,629.18l-1.72-.33a9.28,9.28,0,0,1-1.84-.51,8.11,8.11,0,0,1-4.7-5.8,9.6,9.6,0,0,1-.11-1.89V618.9l0-7,.14-28,.15-28,.06-28c.08-18.68,0-37.36,0-56l-.08-28,0-7V435a6.67,6.67,0,0,1,.24-1.87,6.14,6.14,0,0,1,5.61-4.44c1.22,0,2.35,0,3.53,0l7,0,112.08.45,56,.33,28,.2,14,.12a8.66,8.66,0,0,1,2,.16,7,7,0,0,1,1.92.75,6.8,6.8,0,0,1,2.75,3,6.62,6.62,0,0,1,.58,2,9.08,9.08,0,0,1,.06,1v4.38q0,56-.37,112.07l-.38,56Zm-.2,0-.18-56-.38-56q-.42-56-.37-112.07v-4.38a5.7,5.7,0,0,0,0-.74,4.36,4.36,0,0,0-.41-1.36,4.69,4.69,0,0,0-1.91-2.08,4.6,4.6,0,0,0-1.33-.52,7,7,0,0,0-1.53-.11l-14-.1-28-.22-56-.53L81.26,429.85l-7-.07c-1.15,0-2.36,0-3.47,0a5.11,5.11,0,0,0-4.7,3.68,5.55,5.55,0,0,0-.21,1.59v1.75l0,7-.08,28c-.06,18.68-.12,37.36,0,56l.07,28,.15,28,.14,28,0,7a27.3,27.3,0,0,0,.12,3.35,6.5,6.5,0,0,0,3.82,4.63,22,22,0,0,0,3.26.72l6.89,1.28Q135.28,639.17,190.27,650l55,10.8,27.51,5.31,13.76,2.64,3.44.66,1.72.33a5.81,5.81,0,0,0,1.71.16,4.31,4.31,0,0,0,3-1.42A4.8,4.8,0,0,0,297.54,665.28Z" transform="translate(-64.63 -427.84)"/><path class="cls-1" d="M126.8,427.94,73,429.24l218.23,1.66H292a5.68,5.68,0,0,1,5.63,5.67V661.85s0,3.7,0,5.11c-.13,3.92-5.53,2.94-5.53,2.94s5.21,1.35,8.09-2.62c1.13-1.56,1.83-2.61,1.83-2.61l27.31-39.09a8.49,8.49,0,0,0,1.53-4.87V437.64a8.5,8.5,0,0,0-8.45-8.51Z" transform="translate(-64.63 -427.84)"/><path class="cls-2" d="M126.8,428,73,429.46V429l58.19.1,29.09,0,29.1.13,29.09.16,29.09.26,29.09.3,14.55.17.91,0a7,7,0,0,1,1,.1A6.57,6.57,0,0,1,295,431a6.41,6.41,0,0,1,3.26,4.89c.05.71,0,1.28,0,1.89l0,3.64c-.2,38.79-.37,77.58-.31,116.37l.15,58.19.07,29.09.06,14.55,0,7.29a3.74,3.74,0,0,1-.61,2.07,3.6,3.6,0,0,1-1.73,1.3,8,8,0,0,1-3.94.29l.28-1.29a7.61,7.61,0,0,0,6.21-1.18,7.7,7.7,0,0,0,.6-.54c.18-.19.34-.41.51-.61l1-1.45,2-2.93,8.14-11.73,16.29-23.48,1-1.47.51-.74a7,7,0,0,0,.43-.68,7.71,7.71,0,0,0,.94-3c0-.27,0-.52,0-.81v-6.25l0-14.28-.05-28.57-.08-57.13,0-57.14V437.61l0-.79c-.05-.26-.07-.52-.13-.77a7.56,7.56,0,0,0-3.62-4.93,7.25,7.25,0,0,0-3-.95l-.8,0h-2.68l-7.14-.08-14.29-.14-28.56-.28-28.56-.37-57.13-.7Zm0-.2,57.13.19h85.7l28.57.06,14.29,0h9.82l1,.05a9.26,9.26,0,0,1,3.78,1.2,9.58,9.58,0,0,1,4.59,6.24c.07.33.11.66.16,1s0,.66.06,1v19.64l0,57.14-.08,57.13-.05,28.57,0,14.28v6.25a8,8,0,0,1,0,1,9.27,9.27,0,0,1-1.18,3.73,7.74,7.74,0,0,1-.52.83l-.52.73-1,1.46L312,651.68l-8.22,11.67-2.06,2.93-1.05,1.47c-.21.25-.41.52-.63.75s-.47.46-.74.66a7.8,7.8,0,0,1-3.56,1.5,10.3,10.3,0,0,1-3.83-.12.67.67,0,0,1-.49-.79.65.65,0,0,1,.73-.51h.05a6.79,6.79,0,0,0,3.24-.2,2.38,2.38,0,0,0,1.14-.82,2.44,2.44,0,0,0,.39-1.38l0-7.25.05-14.54.08-29.1.15-58.19q.07-58.18-.32-116.37v-3.64c0-.6,0-1.24,0-1.74a5.07,5.07,0,0,0-.44-1.53,4.92,4.92,0,0,0-3.66-2.8,5.16,5.16,0,0,0-.79-.08h-.9l-14.55-.05-29.09-.14-29.1-.18L189.32,431l-29.09-.3-29.09-.4L73,429.46a.22.22,0,0,1-.22-.22A.23.23,0,0,1,73,429Z" transform="translate(-64.63 -427.84)"/><path class="cls-1" d="M279.48,622.8,80.08,591.85A6,6,0,0,1,75,585.92V448.21a6,6,0,0,1,6.12-6l199.4,3.85a6,6,0,0,1,5.88,6V616.87A6,6,0,0,1,279.48,622.8Z" transform="translate(-64.63 -427.84)"/><path class="cls-2" d="M279.46,622.9,233.65,616,187.8,609.2q-45.86-6.71-91.62-14l-11.44-1.84-2.86-.46a24,24,0,0,1-2.95-.56,6.75,6.75,0,0,1-4.34-4.48,6.62,6.62,0,0,1-.27-1.59c0-.55,0-1,0-1.48l0-2.9,0-5.79.07-11.59.15-23.17.06-23.17c.07-15.45,0-30.89,0-46.34l-.08-23.17a7,7,0,0,1,.52-3,6.59,6.59,0,0,1,1.85-2.46,6.78,6.78,0,0,1,2.8-1.33,8,8,0,0,1,1.54-.13l1.45,0,11.58.16c61.78.88,123.57,1.8,185.34,3.09.48,0,1,0,1.54.06a7.79,7.79,0,0,1,1.65.4,6.89,6.89,0,0,1,2.78,1.89,6.78,6.78,0,0,1,1.58,2.95,6.86,6.86,0,0,1,.22,1.68v13l-.06,23.17-.3,46.35-.38,46.34-.1,23.17,0,11.58a10.21,10.21,0,0,1-.25,2.91,6.09,6.09,0,0,1-1.45,2.54A6.17,6.17,0,0,1,279.46,622.9Zm0-.2a5.87,5.87,0,0,0,6.55-4.23,9.93,9.93,0,0,0,.22-2.84l0-11.58-.1-23.17-.38-46.34-.3-46.35L285.39,465V452a5.33,5.33,0,0,0-.16-1.19,4.86,4.86,0,0,0-1.13-2.09,4.92,4.92,0,0,0-2-1.33,6.65,6.65,0,0,0-2.51-.33C217.83,446,156.06,444.5,94.29,443l-11.58-.28-1.45,0a6.56,6.56,0,0,0-1.34.09,5.8,5.8,0,0,0-2.4,1.11A5.89,5.89,0,0,0,75.9,446a6.31,6.31,0,0,0-.47,2.65l-.08,23.17c0,15.45-.07,30.89,0,46.34l.06,23.17.15,23.17.07,11.59,0,5.79,0,2.9a8.4,8.4,0,0,0,.25,2.67,5.29,5.29,0,0,0,3.45,3.48,26,26,0,0,0,2.73.48l2.87.42,11.46,1.72q45.81,7,91.55,14.41l45.74,7.47Z" transform="translate(-64.63 -427.84)"/><path class="cls-1" d="M116.58,617.27c0,6.11-3.93,10.35-8.76,9.48s-8.67-6.46-8.67-12.5,3.87-10.3,8.67-9.5S116.58,611.16,116.58,617.27Z" transform="translate(-64.63 -427.84)"/><path class="cls-2" d="M116.68,617.27a13.27,13.27,0,0,1-2.08,7.65,6.72,6.72,0,0,1-3.45,2.51,6.89,6.89,0,0,1-4.33-.07,9.16,9.16,0,0,1-3.51-2.26,15,15,0,0,1-2.38-3.26,18.27,18.27,0,0,1-2.32-7.59,11,11,0,0,1,2.3-7.85,7.85,7.85,0,0,1,3.64-2.47,7.55,7.55,0,0,1,4.44,0,10.17,10.17,0,0,1,6.11,5.57A18.64,18.64,0,0,1,116.68,617.27Zm-.2,0a12,12,0,0,0-2.51-7.09,11.24,11.24,0,0,0-5.58-4.2,5.91,5.91,0,0,0-6.07,1.67,11.15,11.15,0,0,0-2.62,6.6,12.18,12.18,0,0,0,1.78,7.26,9.56,9.56,0,0,0,5.81,4.25,6.81,6.81,0,0,0,6.36-1.69A9.17,9.17,0,0,0,116.48,617.27Z" transform="translate(-64.63 -427.84)"/><path class="cls-1" d="M197.36,631.76c0,2.26-1.57,3.8-3.51,3.46a4.75,4.75,0,0,1-3.49-4.69c0-2.24,1.56-3.79,3.49-3.46A4.73,4.73,0,0,1,197.36,631.76Z" transform="translate(-64.63 -427.84)"/><path class="cls-2" d="M197.46,631.76a5.91,5.91,0,0,1-.7,3.18,2.78,2.78,0,0,1-1.54,1.11,3,3,0,0,1-1.91-.1,5.15,5.15,0,0,1-2.36-2.42,9.43,9.43,0,0,1-1.14-3,4,4,0,0,1,.94-3.4,3.62,3.62,0,0,1,3.72-1,3.93,3.93,0,0,1,2.58,2.45A9.56,9.56,0,0,1,197.46,631.76Zm-.2,0a3.22,3.22,0,0,0-1.32-2.45,5.48,5.48,0,0,0-2.05-1.13,2.06,2.06,0,0,0-1.83.31,3.64,3.64,0,0,0-1.15,2,3.3,3.3,0,0,0,.58,2.64,3.19,3.19,0,0,0,2.27,1.17,4,4,0,0,0,2.11-.32A2.47,2.47,0,0,0,197.26,631.76Z" transform="translate(-64.63 -427.84)"/><path class="cls-1" d="M261.21,532.54l-36,12.25a65.24,65.24,0,0,0-38,34l-9.53,20.32L166.1,571.41a65.19,65.19,0,0,0-30-32.79L97.47,518.34l32.19-10.7a65.17,65.17,0,0,0,39.07-35.51l8.86-20,12,27.32a65.13,65.13,0,0,0,30.09,31.92Z" transform="translate(-64.63 -427.84)"/><path class="cls-2" d="M261.31,532.54c-8.72,3.06-17.55,6.31-26.54,9.51L228,544.44c-2.28.8-4.47,1.56-6.61,2.48a66.73,66.73,0,0,0-12.16,6.8,64,64,0,0,0-18.67,20.43c-1.17,2-2.18,4.07-3.18,6.21l-3,6.38-6,12.77h0a.84.84,0,0,1-1.11.39.82.82,0,0,1-.42-.44l-11.15-27.59a65.87,65.87,0,0,0-7-13,64.4,64.4,0,0,0-21.86-19.56l-13.18-6.88c-8.79-4.6-17.63-9.1-26.45-13.64a.55.55,0,0,1,.08-1h0l26.08-8.89,6.51-2.23c1.06-.41,2.14-.76,3.18-1.21s2.09-.87,3.11-1.37a65.47,65.47,0,0,0,11.59-7,64.31,64.31,0,0,0,17.56-20.42c2.16-3.94,3.83-8.23,5.74-12.41l5.58-12.59a1,1,0,0,1,1.91,0l12.11,27.77a64.62,64.62,0,0,0,17.84,23.65A68.49,68.49,0,0,0,221,511.28l13.57,7.14C243.65,523.2,252.45,528,261.31,532.54Zm-.2,0c-9.14-4.6-18.32-9-27.29-13.43l-13.42-6.63a65.79,65.79,0,0,1-31.54-32.22L176.64,452.5h1.9L173,465.11l-2.79,6.3c-.94,2.09-1.93,4.23-3.08,6.25a66.27,66.27,0,0,1-18.24,20.92,64.42,64.42,0,0,1-12,7.11c-1,.5-2.14.9-3.21,1.36s-2.18.79-3.28,1.19l-6.55,2.13-26.21,8.49.08-1c8.76,4.67,17.48,9.39,26.26,14l13.15,7a70.58,70.58,0,0,1,6.37,3.91,67,67,0,0,1,23.24,28.71l11.63,27.39-1.53,0L182.79,586c2-4.24,3.86-8.58,6.29-12.72a65.56,65.56,0,0,1,19.29-20.79,64,64,0,0,1,12.54-6.76c2.21-.9,4.47-1.64,6.66-2.36l6.61-2.16C243,538.34,252,535.54,261.11,532.53Z" transform="translate(-64.63 -427.84)"/><path class="cls-2" d="M220.87,540a104.6,104.6,0,0,1-9.69,6.06c-1.68.91-3.42,1.7-5,2.71a31.51,31.51,0,0,0-4.49,3.48,64.77,64.77,0,0,0-7.59,8.39c-2.25,3-4.42,6.19-6.83,9.14a0,0,0,0,1-.07,0s0,0,0-.06c.93-1.67,1.92-3.31,2.92-4.93s2-3.24,3.15-4.8a41.75,41.75,0,0,1,8.09-8.17c3-2.32,6.25-4.42,9.45-6.49a106.91,106.91,0,0,1,10.06-5.43.07.07,0,0,1,.07,0A.06.06,0,0,1,220.87,540Z" transform="translate(-64.63 -427.84)"/><path class="cls-1" d="M211,634.23c0,2.26-1.57,3.81-3.51,3.46A4.74,4.74,0,0,1,204,633c0-2.24,1.56-3.79,3.49-3.46A4.74,4.74,0,0,1,211,634.23Z" transform="translate(-64.63 -427.84)"/><path class="cls-2" d="M211.12,634.23a5.91,5.91,0,0,1-.7,3.18,2.84,2.84,0,0,1-1.54,1.12,3,3,0,0,1-1.91-.11,5.11,5.11,0,0,1-2.36-2.42,9.34,9.34,0,0,1-1.14-3,4,4,0,0,1,.94-3.4,3.62,3.62,0,0,1,3.72-1,3.94,3.94,0,0,1,2.58,2.46A9.47,9.47,0,0,1,211.12,634.23Zm-.2,0a3.22,3.22,0,0,0-1.32-2.45,5.63,5.63,0,0,0-2-1.13,2.13,2.13,0,0,0-1.83.31,3.67,3.67,0,0,0-1.15,2,3.32,3.32,0,0,0,.58,2.65,3.22,3.22,0,0,0,2.27,1.16,4,4,0,0,0,2.11-.31A2.5,2.5,0,0,0,210.92,634.23Z" transform="translate(-64.63 -427.84)"/><path class="cls-1" d="M225.16,636.88c0,2.26-1.57,3.8-3.51,3.46a4.75,4.75,0,0,1-3.49-4.69c0-2.24,1.56-3.79,3.49-3.46A4.73,4.73,0,0,1,225.16,636.88Z" transform="translate(-64.63 -427.84)"/><path class="cls-2" d="M225.26,636.88a5.91,5.91,0,0,1-.7,3.18,2.78,2.78,0,0,1-1.54,1.11,3,3,0,0,1-1.91-.1,5.15,5.15,0,0,1-2.36-2.42,9.43,9.43,0,0,1-1.14-3,4,4,0,0,1,.94-3.4,3.62,3.62,0,0,1,3.72-1,3.93,3.93,0,0,1,2.58,2.45A9.56,9.56,0,0,1,225.26,636.88Zm-.2,0a3.22,3.22,0,0,0-1.32-2.45,5.48,5.48,0,0,0-2.05-1.13,2.06,2.06,0,0,0-1.83.31,3.64,3.64,0,0,0-1.15,2,3.3,3.3,0,0,0,.58,2.64,3.19,3.19,0,0,0,2.27,1.17,4,4,0,0,0,2.11-.32A2.47,2.47,0,0,0,225.06,636.88Z" transform="translate(-64.63 -427.84)"/></svg>